<svg width="256" height="256" viewBox="0 0 256 256" fill="none" xmlns="http://www.w3.org/2000/svg">
  <rect width="256" height="256" rx="48" fill="#07C160"/>
  <path d="M74 86C74 60.5949 95.4903 40 122 40C148.51 40 170 60.5949 170 86C170 111.405 148.51 132 122 132H114L90 152V128.246C80.5092 119.775 74 103.68 74 86Z" fill="white"/>
  <path d="M120 170C120 146.804 139.252 128 163 128C186.748 128 206 146.804 206 170C206 193.196 186.748 212 163 212H156L136 228V207.997C126.196 200.268 120 185.846 120 170Z" fill="#DFF7E8"/>
  <circle cx="104" cy="86" r="8" fill="#07C160"/>
  <circle cx="140" cy="86" r="8" fill="#07C160"/>
  <circle cx="147" cy="170" r="7" fill="#07C160"/>
  <circle cx="179" cy="170" r="7" fill="#07C160"/>
</svg>