<svg width="256" height="256" viewBox="0 0 256 256" fill="none" xmlns="http://www.w3.org/2000/svg">
  <defs>
    <linearGradient id="bg" x1="38" y1="18" x2="212" y2="238" gradientUnits="userSpaceOnUse">
      <stop offset="0" stop-color="#1EE86E"/>
      <stop offset="0.55" stop-color="#07C160"/>
      <stop offset="1" stop-color="#05A84F"/>
    </linearGradient>
    <linearGradient id="gloss" x1="62" y1="24" x2="140" y2="122" gradientUnits="userSpaceOnUse">
      <stop offset="0" stop-color="white" stop-opacity="0.4"/>
      <stop offset="1" stop-color="white" stop-opacity="0"/>
    </linearGradient>
  </defs>
  <rect width="256" height="256" rx="48" fill="url(#bg)"/>
  <path d="M36 34C36 25.1634 43.1634 18 52 18H204C212.837 18 220 25.1634 220 34V82C220 82 188 44 116 44C76 44 52 56 36 74V34Z" fill="url(#gloss)" opacity="0.55"/>
  <path d="M52 82C52 54.938 75.8776 33 105.333 33C134.789 33 158.667 54.938 158.667 82C158.667 109.062 134.789 131 105.333 131H96.667L70 154V128.326C58.8129 119.41 52 102.716 52 82Z" fill="white"/>
  <path d="M111 146C111 124.461 129.58 107 152.5 107C175.42 107 194 124.461 194 146C194 167.539 175.42 185 152.5 185H146.8L126 202V183.185C117.808 176.418 111 162.647 111 146Z" fill="#E9F8EE"/>

  <line x1="107" y1="62" x2="107" y2="56" stroke="#07C160" stroke-width="4" stroke-linecap="round"/>
  <circle cx="107" cy="52" r="4" fill="#07C160"/>
  <rect x="76" y="66" width="62" height="38" rx="17" fill="#07C160"/>
  <rect x="85" y="76" width="16" height="10" rx="5" fill="white"/>
  <rect x="113" y="76" width="16" height="10" rx="5" fill="white"/>
  <circle cx="93" cy="81" r="3" fill="#07C160"/>
  <circle cx="121" cy="81" r="3" fill="#07C160"/>
  <rect x="97" y="92" width="20" height="4" rx="2" fill="white"/>

  <line x1="154" y1="127" x2="154" y2="121" stroke="#07C160" stroke-width="4" stroke-linecap="round"/>
  <circle cx="154" cy="117" r="4" fill="#07C160"/>
  <rect x="128" y="131" width="52" height="32" rx="15" fill="#07C160"/>
  <rect x="136" y="140" width="13" height="8" rx="4" fill="#DFF7E8"/>
  <rect x="159" y="140" width="13" height="8" rx="4" fill="#DFF7E8"/>
  <circle cx="142.5" cy="144" r="2.5" fill="#07C160"/>
  <circle cx="165.5" cy="144" r="2.5" fill="#07C160"/>
  <rect x="145" y="153" width="18" height="4" rx="2" fill="#DFF7E8"/>
</svg>